<svg id="图层_1" data-name="图层 1" xmlns="http://www.w3.org/2000/svg" xmlns:xlink="http://www.w3.org/1999/xlink" viewBox="0 0 752.67 963.37"><defs><clipPath id="clip-path"><rect x="0.92" y="-913.63" width="750" height="1877" fill="none"/></clipPath><linearGradient id="未命名的渐变_43" x1="375.92" y1="-1019.44" x2="375.92" y2="-518.95" gradientUnits="userSpaceOnUse"><stop offset="0.02" stop-color="#fa5"/><stop offset="0.99" stop-color="#ffc992"/></linearGradient><clipPath id="clip-path-2"><rect x="38.92" y="84.37" width="683" height="792" rx="49.36" fill="#fff"/></clipPath><linearGradient id="未命名的渐变_9" x1="376.59" y1="115.28" x2="376.06" y2="23.75" gradientUnits="userSpaceOnUse"><stop offset="0.02" stop-color="#ff7613"/><stop offset="1" stop-color="#ffb241"/></linearGradient></defs><g clip-path="url(#clip-path)"><rect x="0.92" y="-913.63" width="750" height="1877" fill="url(#未命名的渐变_43)"/><path d="M391.78,28.06S289.34-25.09,328.52-122.4c30.19-75,156.14-61.71,216-22.1s132.61,37.1,178.17,20.1C779.56-145.61,796.16-190,796.16-190L835.67-17.55c12.52,54.68-95.14,119-150.66,110.94Z" fill="#ffa759"/><path d="M-5.08-299.63S31.1-287.44,39.29-180.46,35.57,2.35,147.23,30.79s157,40.84,200.06,60.94c31.59,14.74,26.3,20.64,26.3,20.64C273.38,369,149.52,529.75,77.92,511.37c-66.25-17-94.66-189.13-83-399Z" fill="#ffa759"/><g opacity="0.16"><path d="M65.13,114.37H1.92v181H65c32.15,0,110.46-4.2,110.46-95.19C175.49,110.39,80.31,114.37,65.13,114.37Zm-.61,151H45.92v-122H65.81c13.76,0,65.84.19,65.33,57.93C130.66,253.59,88.74,265.37,64.52,265.37Z" fill="none" stroke="#fff" stroke-miterlimit="10" stroke-width="2.18"/><rect x="484.92" y="114.37" width="40" height="181" fill="none" stroke="#fff" stroke-miterlimit="10" stroke-width="2.18"/><path d="M442.92,114.37h-41V235.31c0,42.3-22.92,50.06-22.92,50.06l11.66,20.36c54.83-11.9,52.26-63.49,52.26-63.49Z" fill="none" stroke="#fff" stroke-miterlimit="10" stroke-width="2.18"/><polygon points="648.06 109.85 548.82 295.38 597.12 295.38 647.95 193.32 700.38 295.38 750.74 295.38 648.06 109.85" fill="none" stroke="#fff" stroke-miterlimit="10" stroke-width="2.18"/><polygon points="262.61 109.85 163.37 295.38 211.7 295.38 262.53 193.32 314.94 295.38 365.31 295.38 262.61 109.85" fill="none" stroke="#fff" stroke-miterlimit="10" stroke-width="2.18"/></g><g opacity="0.16"><path d="M65.13,234.37H1.92v181H65c32.15,0,110.46-4.2,110.46-95.19C175.49,230.39,80.31,234.37,65.13,234.37Zm-.61,152H45.92v-122H65.81c13.76,0,65.84.19,65.33,57.93C130.66,374.59,88.74,386.37,64.52,386.37Z" fill="none" stroke="#fff" stroke-miterlimit="10" stroke-width="2.18"/><rect x="484.92" y="234.37" width="40" height="181" fill="none" stroke="#fff" stroke-miterlimit="10" stroke-width="2.18"/><path d="M442.92,234.37h-41V355.31c0,42.3-22.92,50.06-22.92,50.06l11.66,20.36c54.83-11.9,52.26-63.49,52.26-63.49Z" fill="none" stroke="#fff" stroke-miterlimit="10" stroke-width="2.18"/><polygon points="648.06 229.85 548.82 415.38 597.12 415.38 647.95 313.32 700.38 415.38 750.74 415.38 648.06 229.85" fill="none" stroke="#fff" stroke-miterlimit="10" stroke-width="2.18"/><polygon points="262.61 229.85 163.37 415.38 211.7 415.38 262.53 313.32 314.94 415.38 365.31 415.38 262.61 229.85" fill="none" stroke="#fff" stroke-miterlimit="10" stroke-width="2.18"/></g><g opacity="0.16"><path d="M65.13,354.37H1.92v181H65c32.15,0,110.46-4.2,110.46-95.19C175.49,350.39,80.31,354.37,65.13,354.37Zm-.61,152H45.92v-122H65.81c13.76,0,65.84.19,65.33,57.93C130.66,494.59,88.74,506.37,64.52,506.37Z" fill="none" stroke="#fff" stroke-miterlimit="10" stroke-width="2.18"/><rect x="484.92" y="354.37" width="40" height="181" fill="none" stroke="#fff" stroke-miterlimit="10" stroke-width="2.18"/><path d="M442.92,354.37h-41V475.31c0,42.3-22.92,50.06-22.92,50.06l11.66,20.36c54.83-11.9,52.26-63.49,52.26-63.49Z" fill="none" stroke="#fff" stroke-miterlimit="10" stroke-width="2.18"/><polygon points="648.06 349.85 548.82 535.38 597.12 535.38 647.95 433.32 700.38 535.38 750.74 535.38 648.06 349.85" fill="none" stroke="#fff" stroke-miterlimit="10" stroke-width="2.18"/><polygon points="262.61 349.85 163.37 535.38 211.7 535.38 262.53 433.32 314.94 535.38 365.31 535.38 262.61 349.85" fill="none" stroke="#fff" stroke-miterlimit="10" stroke-width="2.18"/></g><g opacity="0.16"><path d="M65.13,475.37H1.92v181H65c32.15,0,110.46-4.2,110.46-95.19C175.49,471.39,80.31,475.37,65.13,475.37Zm-.61,151H45.92v-122H65.81c13.76,0,65.84.19,65.33,57.93C130.66,614.59,88.74,626.37,64.52,626.37Z" fill="none" stroke="#fff" stroke-miterlimit="10" stroke-width="2.18"/><rect x="484.92" y="475.37" width="40" height="181" fill="none" stroke="#fff" stroke-miterlimit="10" stroke-width="2.18"/><path d="M442.92,475.37h-41V596.31c0,42.3-22.92,50.06-22.92,50.06l11.66,20.36c54.83-11.9,52.26-63.49,52.26-63.49Z" fill="none" stroke="#fff" stroke-miterlimit="10" stroke-width="2.18"/><polygon points="648.06 470.85 548.82 656.38 597.12 656.38 647.95 554.32 700.38 656.38 750.74 656.38 648.06 470.85" fill="none" stroke="#fff" stroke-miterlimit="10" stroke-width="2.18"/><polygon points="262.61 470.85 163.37 656.38 211.7 656.38 262.53 554.32 314.94 656.38 365.31 656.38 262.61 470.85" fill="none" stroke="#fff" stroke-miterlimit="10" stroke-width="2.18"/></g><g opacity="0.16"><path d="M65.13,744.37H1.92v181H65c32.15,0,110.46-4.2,110.46-95.19C175.49,740.39,80.31,744.37,65.13,744.37Zm-.61,151H45.92v-122H65.81c13.76,0,65.84.19,65.33,57.93C130.66,883.59,88.74,895.37,64.52,895.37Z" fill="none" stroke="#fff" stroke-miterlimit="10" stroke-width="2.18"/><rect x="484.92" y="744.37" width="40" height="181" fill="none" stroke="#fff" stroke-miterlimit="10" stroke-width="2.18"/><path d="M442.92,744.37h-41V865.31c0,42.3-22.92,50.06-22.92,50.06l11.66,20.36c54.83-11.9,52.26-63.49,52.26-63.49Z" fill="none" stroke="#fff" stroke-miterlimit="10" stroke-width="2.18"/><polygon points="648.06 739.85 548.82 925.38 597.12 925.38 647.95 823.32 700.38 925.38 750.74 925.38 648.06 739.85" fill="none" stroke="#fff" stroke-miterlimit="10" stroke-width="2.18"/><polygon points="262.61 739.85 163.37 925.38 211.7 925.38 262.53 823.32 314.94 925.38 365.31 925.38 262.61 739.85" fill="none" stroke="#fff" stroke-miterlimit="10" stroke-width="2.18"/></g><path d="M29.33,312.29,46.46,888.07c1,34.61,23,55.88,58.07,55.72l574.25-73c38.64-9.34,52.12-34.48,51-68.75L711,251.38c-1.15-33.88,4.37-60.37-34.33-58.21l-616,53.39C33.13,249.54,29.27,250.24,29.33,312.29Z" fill="#ff8c3c"/><rect x="38.92" y="84.37" width="683" height="792" rx="49.36" fill="#fff"/><g clip-path="url(#clip-path-2)"><path d="M798.74,779.59C688.5,785.41,597.83,757.28,541.6,733a223.92,223.92,0,0,0,39.46-48.9c15.8-26.43,19.79-52.66,10.93-72-6.39-13.94-18.86-23.16-35.11-26-38.14-6.61-56.9,20.79-61.87,29.61-4.58-5.44-18.12-18-44.76-16.49-20.4,1.12-37.11,12.57-43.62,29.86-7.87,20.92.23,45.26,22.23,66.78,29.79,29.15,75.3,45.66,75.76,45.82l1,.35.79-.67a149.74,149.74,0,0,0,14.13-14q6.81,3.3,14.57,6.78c-25.33,22.64-60.66,43.39-108.42,50.59C357.69,795.19,244,773,113.42,745.2c-121-25.79-182.33,3.73-208.49,16.34l.71,1.67.86,1.6c25.83-12.45,86.33-41.59,206.17-16.07C221,771.82,317.76,791,387.36,791a269.37,269.37,0,0,0,39.85-2.65,214.34,214.34,0,0,0,111.34-52.64c14,6.13,30.11,12.5,48.13,18.51a572.62,572.62,0,0,0,212.25,29ZM519.6,722.85a404,404,0,0,1-36.5-20c-15.85-9.91-23.83-21.83-21.89-32.7a18.64,18.64,0,0,1,14.88-14.76,24,24,0,0,1,5-.53c13.23,0,20.69,11.41,21,12l2.09,3.27,1.17-3.69a22.84,22.84,0,0,1,25.94-16.07c7.33,1.34,14.92,7.07,14.25,19.09C544.43,690,530.9,709.74,519.6,722.85Zm18.53,8.59c-5.36-2.36-10.39-4.68-15.07-6.92,11.52-13.45,25-33.51,26.14-54.86.67-11.84-6.09-20.82-17.22-22.86a26.73,26.73,0,0,0-28.86,15.43c-4-4.61-13.67-13.3-27.77-10.35a22.27,22.27,0,0,0-17.71,17.68C455.43,682,464,695.24,481.18,706c6.55,4.1,18.75,11.32,35.87,19.76a160.85,160.85,0,0,1-12.2,12.19c-6.76-2.57-46.66-18.41-73.46-44.63-20.91-20.47-28.7-43.4-21.36-62.91,6-15.93,21.48-26.48,40.42-27.52,1.4-.08,2.75-.11,4.06-.11,28,0,38.78,16.59,39.24,17.33l1.82,2.9,1.38-3.13c.68-1.53,17.07-37.47,59.31-30.16,15,2.61,26.55,11.1,32.43,23.91,8.35,18.2,4.43,43.2-10.75,68.59A225.85,225.85,0,0,1,538.13,731.44Z" fill="#ff1c1f" opacity="0.15"/></g><rect x="235.42" y="50.87" width="282" height="72" rx="35.89" stroke="#fff" stroke-miterlimit="10" stroke-width="5" fill="url(#未命名的渐变_9)"/><text transform="translate(271.93 100.71) scale(1.05 1)" font-size="42.64" fill="#fff" font-family="FZHZGBJW--GB1-0, FZHanZhenGuangBiaoS-GB" letter-spacing="0.2em">活动介绍</text><text transform="translate(66.53 187.38)" font-size="29" font-family="FZLTXHJW--GB1-0, FZLanTingHeiS-EL-GB"><tspan xml:space="preserve">    自2019年6月25日大家保险集团成立以来，你</tspan><tspan x="0" y="51">我携手同行了500多个日夜。</tspan><tspan x="0" y="102" xml:space="preserve">    这段时间，我们是转型者，也是创业者。</tspan><tspan x="0" y="153" xml:space="preserve">    这段时间，我们经历了很多，也成就了很多。</tspan><tspan x="0" y="204" xml:space="preserve">    这段时间，我们用品格和力量，铸就大家人的</tspan><tspan x="0" y="255">形象：</tspan><tspan x="0" y="306" xml:space="preserve">    </tspan><tspan x="32.25" y="306" fill="#ff7613" stroke="#ff7613" stroke-miterlimit="10">善心、公心、匠心，我们同心</tspan><tspan x="409.25" y="306">；</tspan><tspan x="0" y="357" xml:space="preserve">    </tspan><tspan x="32.25" y="357" fill="#ff7613" stroke="#ff7613" stroke-miterlimit="10">善心善举、公心向司、匠心匠行，我们同行</tspan><tspan x="583.25" y="357">；</tspan><tspan x="0" y="408" xml:space="preserve">    有太多的伙伴体现出来的这些精神品质凝成了</tspan><tspan x="0" y="459">我们特有的大家文化。</tspan><tspan x="0" y="510" xml:space="preserve">    为此，集团在2020年12月发起一场“</tspan><tspan x="511.18" y="510" fill="#ff7613" stroke="#ff7613" stroke-miterlimit="10">寻找同</tspan><tspan fill="#ff7613"><tspan x="0" y="561" stroke="#ff7613" stroke-miterlimit="10">心同行大家人</tspan><tspan x="174" y="561" fill="red" stroke="red" stroke-miterlimit="10"> </tspan><tspan x="182.06" y="561" fill="#000">”活动，可以是你，你身边的人，</tspan></tspan><tspan x="0" y="612">你身边的团队，快来寻找吧！</tspan></text><path d="M543.31,45.59c.2.78.38,1.56,1.26,1.87s.85.33.91-.54a5.76,5.76,0,0,1,1-2.8c.23-.29,0-.34-.21-.38a2.29,2.29,0,0,0-2.6.66Z" fill="#e7735d"/><path d="M537.5,118c-.13.6.4.91.59,1.37l39.7,12.5,0-.12c-.22-.37-.61-.41-1-.52l-10.92-3.45L540,119.61a2.86,2.86,0,0,1-2.09-1.4A.34.34,0,0,0,537.5,118Z" fill="#f6c971"/><path d="M589.61,20a12.7,12.7,0,0,0-3.17-.61c-2.7,8.8-5.52,17.57-8.27,26.37-.23.73-.5,1.38-1.42,1.39a1.29,1.29,0,0,1-1.31-1.67c.07-.26.16-.51.24-.77q3.57-11.35,7.15-22.71a2.39,2.39,0,0,0,.22-1.15c-.14-.35-.43-.29-.68-.21-.62.18-1.24.33-1.86.52a1.83,1.83,0,0,0-1.26,1.33Q576,32.89,572.73,43.25a3.54,3.54,0,0,1-.33.87,1.66,1.66,0,0,0-.15.33c-.38.87-.68,1-1.67.91a1.71,1.71,0,0,1-1.07-1.09,1.9,1.9,0,0,1,.19-1q2.88-9.18,5.77-18.35c.1-.34.43-.79.1-1s-.6.23-.88.41A21.43,21.43,0,0,0,571.61,27a2,2,0,0,0-.44.95q-2.29,7.23-4.57,14.48a2.23,2.23,0,0,1-.3.75,1.28,1.28,0,0,1-1.26.43,2.61,2.61,0,0,1-.61-.11.54.54,0,0,0-.63.37,31.33,31.33,0,0,0-1.07,3.41.5.5,0,0,0,0,.36,1.19,1.19,0,0,0,.7.36L601.9,60.06a1.07,1.07,0,0,0,.84.06c1.33-4.23,2.78-8.44,4-12.72a20.6,20.6,0,0,0,0-10.46.89.89,0,0,0-.09-.16c-.42.2-.44.63-.56,1q-2.37,7.47-4.71,14.95c-.08.23-.16.47-.23.71a1.23,1.23,0,0,1-1.29,1c-1.13-.19-1.48-.77-1.12-1.91q3-9.48,6-19a3.77,3.77,0,0,0,.25-1.52,14.67,14.67,0,0,0-2.08-3.26c-.33-.11-.37.18-.47.36a5,5,0,0,0-.28.82q-3.39,10.76-6.77,21.49c-.2.64-.44,1.18-1.23,1.16a1.27,1.27,0,0,1-1.3-1.65c.06-.25.15-.48.22-.72l7.17-22.76c.14-.46.31-.91.46-1.36A16.47,16.47,0,0,0,598,23.88c-.4.22-.43.64-.54,1Q594.22,35,591,45.15c-.49,1.54-1,3.09-1.47,4.63a1.25,1.25,0,0,1-1.28,1A1.31,1.31,0,0,1,587,49.07c.06-.27.15-.52.23-.78L595,23.63c.14-.46.32-.9.46-1.36a13.7,13.7,0,0,0-2.93-1.3.36.36,0,0,0-.21.11,3.25,3.25,0,0,0-.44,1.09q-4,12.54-7.91,25.09c-.08.24-.16.48-.22.72a1.18,1.18,0,0,1-1.3,1,1.22,1.22,0,0,1-1.18-1.67c.1-.36.22-.71.34-1.07q3.93-12.51,7.87-25C589.6,20.84,589.85,20.46,589.61,20Z" fill="#48bcac"/><path d="M608.13,62.07a.37.37,0,0,0-.39.14c-.62.68-1.31.46-2,.21-.88-.32-1.77-.61-2.67-.85-.55-.14-.72-.37-.46-.89a2.63,2.63,0,0,0,.08-.3c-.15-.24-.41-.27-.65-.34L566.23,48.76a1.42,1.42,0,0,0-.61-.12c-.34.16-.39.51-.49.82-.44,1.36-.86,2.73-1.3,4.09-.25.77-.3.8-1.06.57-1.46-.46-2.92-.93-4.39-1.38-.54-.17-1.13-.26-1-1.12a.84.84,0,0,0-.5,1,1.08,1.08,0,0,0,.59.32c1.27.46,2.56.85,3.83,1.29,1.05.37,2.1.76,3.16,1.09l34.69,10.92a5.14,5.14,0,0,0,1.44.35c.29,0,.4-.15.45-.38a4.56,4.56,0,0,1,.28-.81,1.59,1.59,0,0,0,.07-.2c.21-.93.54-1.83.82-2.74s.25-.77,1.06-.57c1.13.41,2.31.7,3.43,1.14a.85.85,0,0,0,.3.15,1.09,1.09,0,0,0,.3.07C608.23,63.33,608.46,63,608.13,62.07Z" fill="#f2d165"/><path d="M577.5,109.14a31.33,31.33,0,0,0,8.48-2,33.37,33.37,0,0,0,13.21-9A32.76,32.76,0,0,0,604.6,90a44.77,44.77,0,0,0,2-5.35c1.56-4.89,3.09-9.78,4.64-14.67-.12-.06-.21,0-.3.08a5.49,5.49,0,0,0-.53,1.52c-.25.68-.44,1.39-.67,2.08-.1.31-.26.53-.63.36a16.22,16.22,0,0,0-3.32-1,.38.38,0,0,1-.32-.55,31.12,31.12,0,0,1,1.22-3.6c0-.25-.13-.3-.33-.3-.35.19-.38.57-.48.9q-2.4,7.58-4.78,15.15a26.39,26.39,0,0,1-4.2,8.08,28.63,28.63,0,0,1-12.19,9.37,29.45,29.45,0,0,1-8.27,2,1.37,1.37,0,0,0-.66.16c-.2.32,0,.59.1.88a23.76,23.76,0,0,0,1.35,3.82A.55.55,0,0,0,577.5,109.14Z" fill="#eb8d52"/><path d="M557.84,112.4c-.22.33-.53.17-.79.13a26.92,26.92,0,0,0-4.11-.17c-.12,0-.25,0-.35.07s-.11.21-.21.28a7.35,7.35,0,0,0-2.71,3.75,8.3,8.3,0,0,0-.41,1.31.79.79,0,0,0,.17.86,3,3,0,0,0,.92.38l24,7.55c.38.12.8.46,1.2,0a9.93,9.93,0,0,0-1.83-4.68,19.81,19.81,0,0,0-7.56-6.48c-.5-.27-.57-.52-.39-1,.28-.8.51-1.62.76-2.43l-.11,0-.09.06a7.23,7.23,0,0,0-.72,1.91c-.24.7-.22.66-.89.45A48.07,48.07,0,0,0,557.84,112.4Z" fill="#eb8d52"/><path d="M575.54,126.59c-.19.11-.36,0-.53,0l-25.55-8-.11,0a1.11,1.11,0,0,0-.67-.41c-1.9-.6-3.79-1.22-5.7-1.78a1.42,1.42,0,0,1-.84-.06c-.57-.2-1.16-.35-1.72-.55-1.55-.55-2.54,0-2.76,1.74.23.38.64.44,1,.55l17.16,5.41,22.62,7.13a2.37,2.37,0,0,0,.79.16,1.93,1.93,0,0,0-1.08-3.12A8.72,8.72,0,0,1,575.54,126.59Z" fill="#f1d161"/><path d="M562.82,47.54c.37-1.19.76-2.37,1.11-3.56.11-.38.29-.46.63-.33.06-.29-.19-.39-.34-.54a1.12,1.12,0,0,1-.33-1.13c.07-.29.16-.56.25-.84q2.39-7.56,4.75-15.1c.12-.37.35-.73.11-1.14a21.12,21.12,0,0,0-5.09,6.3,15.14,15.14,0,0,0-1.22,2.65c-1.32,4.14-2.62,8.28-3.93,12.42a.83.83,0,0,0,.5.35c1,.32,2,.63,3,.93A.64.64,0,0,0,562.82,47.54Z" fill="#29a692"/><path d="M579.24,130.64c-.15-.28-.45-.28-.7-.36l-39.81-12.55-1.07-.34-.16.61c.24.1.28.33.37.54a1.57,1.57,0,0,0,1,.95l3.51,1.1,35.41,11.16C578.5,131.65,579.08,131.42,579.24,130.64Z" fill="#edc14d"/><path d="M595.46,22.27c-.4,0-.35.37-.42.59q-4,12.6-7.94,25.18c-.11.34-.19.69-.33,1a1.45,1.45,0,0,0,1.47,2c2.71-8.87,5.57-17.7,8.33-26.56a1.31,1.31,0,0,1,.28-.62c.31-.29.13-.5-.05-.73A5.42,5.42,0,0,0,595.46,22.27Z" fill="#3f5f70"/><path d="M589.61,20c-.5,1.62-1,3.25-1.52,4.87q-3.51,11.19-7,22.37a1.38,1.38,0,0,0,1.38,1.92c.14-.61.33-1.2.51-1.8q4-12.64,8-25.29c.07-.22.15-.43.21-.65.11-.42.34-.6.77-.46a.66.66,0,0,0,.55,0h0l0,0A10.28,10.28,0,0,0,589.61,20Z" fill="#3f5e6f"/><path d="M583,20.84q-3.87,12.27-7.73,24.55a1.43,1.43,0,0,0,1.47,2,1.89,1.89,0,0,1,.11-.91q4.06-12.87,8.11-25.75a5.47,5.47,0,0,0,.34-1.38,6.85,6.85,0,0,0-1.81,0A1.55,1.55,0,0,0,583,20.84Z" fill="#435d6f"/><path d="M556.91,52.59l.26-.83c.15.31-.2.59,0,.77a2.15,2.15,0,0,0,.68.27c1.77.56,3.53,1.1,5.29,1.67.41.14.58.05.71-.37.55-1.8,1.13-3.6,1.7-5.4a.52.52,0,0,0-.41-.26c-2.08-.65-4.15-1.34-6.23-1.95a.38.38,0,0,0-.24,0l-.1.22c-.2.24-.17.6-.4.83-.48,1.25-.82,2.54-1.24,3.81a2.31,2.31,0,0,0-.24,1.12C556.77,52.6,556.82,52.63,556.91,52.59Z" fill="#eec14c"/><path d="M558.36,47.58c.08-.27.17-.55.25-.83-.24.71-.7.64-1.29.43-1-.36-2-.65-3-.94a.85.85,0,0,1-.63-.59c-.89-2.47-2.72-3.12-5-3a2.76,2.76,0,0,0-1.56.69,1.54,1.54,0,0,1-.93.39c0,.1.31,0,.15.25,0,0-.12.09-.09.15a9,9,0,0,1,.37,2.3A5,5,0,0,0,549,49.65a3.32,3.32,0,0,0,2.23.78c.32,0-.09.27.09.35s.44.07.62-.06a1.43,1.43,0,0,1,1.45-.2.44.44,0,0,0,.52-.05c-.16-.51-.64-.43-1-.56a4,4,0,0,0,1.13-2.9c0-.45.14-.53.55-.4.93.31,1.86.61,2.79.88a1.84,1.84,0,0,0,.73.16A.68.68,0,0,0,558.36,47.58Z" fill="#f2d165"/><path d="M600.64,26.14c-.32-.06-.31.2-.37.38q-3.87,12.27-7.73,24.53c-.3.94.41,1.75,1.54,1.8a3.32,3.32,0,0,1,.22-1.28Q598,39.9,601.66,28.22a2,2,0,0,0,.15-.79A9,9,0,0,0,600.64,26.14Z" fill="#3d606e"/><path d="M585.28,19.34c-.1.09-.2.14-.25.31q-4.28,13.62-8.57,27.22c-.12.37,0,.43.26.51.88,0,1.22-.23,1.51-1.14q3.78-12,7.55-24L586.5,20c.06-.21.22-.43-.06-.6Z" fill="#274651"/><path d="M570.51,45.51c1.12.24,1.55,0,2-1.19a2.06,2.06,0,0,0,.24-.64q3.36-10.62,6.69-21.24a13.81,13.81,0,0,0,.83-2.13c0-.26.19-.59-.24-.69a8.34,8.34,0,0,0-1.71.4,3.55,3.55,0,0,0-.42,1q-3.74,11.82-7.45,23.64C570.32,45,570.12,45.28,570.51,45.51Z" fill="#1a4b52"/><path d="M608.13,62.07a2.1,2.1,0,0,1-.06.24c-.09.23.26.55,0,.67a1.2,1.2,0,0,1-1,.08.51.51,0,0,0-.23.48,5.81,5.81,0,0,0,2.6,5.2,3,3,0,0,0,.86.36,4.38,4.38,0,0,1,1.46.66.3.3,0,0,0,.33-.08,1.53,1.53,0,0,1,1.74-.41c-.46-.35-.34-.69-.06-1.13a4.08,4.08,0,0,0,.63-2.24,2.24,2.24,0,0,1,.06-.68,1.34,1.34,0,0,1-.51-.79A4.17,4.17,0,0,0,608.13,62.07Z" fill="#f2d165"/><path d="M596.8,23.09c.07.42-.26.7-.37,1.06-1.57,5.05-3.17,10.1-4.76,15.14-1.15,3.67-2.31,7.33-3.45,11-.08.23-.32.5,0,.72.87.08,1.22-.17,1.51-1.1q3.82-12.09,7.63-24.18c.19-.62.39-1.23.59-1.84A4.16,4.16,0,0,0,596.8,23.09Z" fill="#2c4351"/><path d="M604.92,32.06a3.29,3.29,0,0,0-.35,1.1q-3.11,9.78-6.18,19.58a1.35,1.35,0,0,0,1.39,1.9,2.8,2.8,0,0,0,.32-.73c1.78-5.69,3.58-11.37,5.36-17a13.78,13.78,0,0,0,.58-2.09A17.36,17.36,0,0,0,604.92,32.06Z" fill="#405f70"/><path d="M570.51,45.51c0-.11-.11-.18-.07-.34Q574.28,33.1,578.09,21c.1-.32.38-.61.19-1l-1.43.38a.82.82,0,0,0-.33.36,21.37,21.37,0,0,0-.86,2.93,8.33,8.33,0,0,1-.17.84q-3,9.48-6,19a2.06,2.06,0,0,0-.13,1A2,2,0,0,0,570.51,45.51Z" fill="#405e6f"/><path d="M601.81,27.43a1.93,1.93,0,0,0-.39.83Q597.67,40.14,593.94,52c-.09.27-.39.63.14.82.93,0,1.1-.17,1.37-1q3.52-11.16,7-22.32c.08-.25,0-.56.35-.69A4.66,4.66,0,0,0,601.81,27.43Z" fill="#274350"/><path d="M565.09,43.72a1.42,1.42,0,0,0,1.22-.3c.21-.15.21-.4.27-.61,1.38-4.34,2.76-8.67,4.1-13,.73-2.34,1.73-4.58,2.37-6.94.06-.23.32-.49,0-.72a6.78,6.78,0,0,0-1.9,1.13,6.87,6.87,0,0,0-.85,2q-2.73,8.64-5.45,17.29a3.55,3.55,0,0,0-.17.66C564.62,43.52,564.72,43.73,565.09,43.72Z" fill="#2a4351"/><path d="M557.25,105c.27.21.22.54.33.81a1.5,1.5,0,0,0,1.16,1.11,4.37,4.37,0,0,1,.7.22,1.11,1.11,0,0,0,.69.38c2.13.68,4.25,1.35,6.38,2a1.11,1.11,0,0,0,.78.08l.84.25a1.69,1.69,0,0,0,2-.8,1,1,0,0,0,.36-1.13,1.48,1.48,0,0,0-.8-.44l-10.91-3.43a2.09,2.09,0,0,0-.79-.15C557.45,104.12,557.46,104.64,557.25,105Z" fill="#eec14c"/><path d="M565.09,43.72c-.21-.09-.37-.2-.27-.47s.09-.27.13-.41q2.79-8.84,5.57-17.68a9.76,9.76,0,0,0,.6-1.9A10.19,10.19,0,0,0,569,24.9c-.5,1.61-1,3.22-1.49,4.82q-1.82,5.78-3.64,11.54c-.47,1.49-.46,1.49.69,2.39C564.73,43.7,564.89,43.83,565.09,43.72Z" fill="#3a626f"/><path d="M570.41,108c-.11.36-.22.73-.32,1.1a28.72,28.72,0,0,0,7.41.06,28.25,28.25,0,0,1-1.49-4.32,1.82,1.82,0,0,0-.27-.54.58.58,0,0,0-.39-.15c-1.15-.07-2.3,0-3.45-.08a.49.49,0,0,0-.43.2,21.33,21.33,0,0,0-1.11,3.3A.65.65,0,0,0,570.41,108Z" fill="#e1733a"/><path d="M567.29,109.63l-7.85-2.47c-.53,1.75-1.07,3.49-1.6,5.24.09.34.41.26.61.3,1.91.36,3.7,1.09,5.54,1.63a2.75,2.75,0,0,1,1.13.48c.28.25.42,0,.5-.3.27-.85.54-1.71.8-2.56a2.45,2.45,0,0,0-1.15-1.1c-2.08-1.1-4.78-1.41-6.86.38a6.66,6.66,0,0,0,.58-1.56c.15-.43.27-.87.41-1.3.26-.8.29-.81,1.11-.56l2.49.79c1.07.33,2.14.66,3.21,1,.62.2.63.26.47.9-.12.47-.43.91-.25,1.44l.09,0Z" fill="#e9735b"/><path d="M606,34.77a.26.26,0,0,0-.26.22q-2.94,9.43-5.9,18.88c-.07.25-.25.49-.1.77.86.08,1.21-.16,1.49-1l5.14-16.3c.06-.18.13-.35.19-.53A7.92,7.92,0,0,0,606,34.77Z" fill="#284652"/><path d="M573,22.13c.09.36-.17.62-.27.92q-3.07,9.87-6.21,19.73c-.06.22-.15.43-.23.64.31-.13.29-.44.36-.68,1.47-4.63,3-9.26,4.36-13.91a6.07,6.07,0,0,1,2-2.94A24.07,24.07,0,0,1,575.6,24l-.21.66-6,19c-.09.32-.26.63,0,1a6,6,0,0,1,.38-1.63q3.35-10.6,6.68-21.21a4.85,4.85,0,0,1,.41-1.29A16.73,16.73,0,0,0,573,22.13Z" fill="#29a693"/><path d="M611.73,69.76c-.1-.51-.54-.58-.92-.67a4.77,4.77,0,0,1-3.07-2.35,4.63,4.63,0,0,1-.68-2.4c0-.43-.21-.85,0-1.28L606.8,63c-.68.09-.82.68-1,1.15a4,4,0,0,0-.33,2.23c0,.17,0,.24-.13,0-1.09-.46-2.23-.76-3.35-1.11-.23-.07-.48-.16-.7,0l0,0c.12.32.43.36.7.45,1,.32,2,.63,3,.93a1.08,1.08,0,0,1,.78.71,2.25,2.25,0,0,0,.72,1.13c.12,0,.26.06.29.22a2.24,2.24,0,0,0,1.57,1.29,3.17,3.17,0,0,0,2.86,0l.16-.08A.75.75,0,0,0,611.73,69.76Z" fill="#eec04c"/><path d="M580,19.62c.34.23.08.5,0,.72q-3.06,9.73-6.13,19.47c-.47,1.5-.93,3-1.4,4.51.25-.18.25-.47.33-.72q3.33-10.53,6.62-21.06a1.66,1.66,0,0,1,1.15-1.17c.7-.23,1.42-.38,2.13-.59a.27.27,0,0,1,.28.06c.16-.51.33-1,.49-1.53A16.94,16.94,0,0,0,580,19.62Z" fill="#2ca695"/><path d="M614.43,65.22c-.27,0-.28.18-.26.38a4.14,4.14,0,0,1-.94,3c-.23.29-.17.43.16.52l.41.14a2,2,0,0,0,2.28-1.78A2.12,2.12,0,0,0,614.43,65.22Z" fill="#e7745c"/><path d="M558.71,46.53l.09,0a1.27,1.27,0,0,1,.72.16L602,60.09a1.61,1.61,0,0,0,.72.16l0-.13-10.16-3.18-29.06-9.16-.7-.24-4.06-1.27Z" fill="#a6b568"/><path d="M602.7,60.25,560.11,46.86a2.48,2.48,0,0,0-1.31-.3l6.79,2.14,37.07,11.68Z" fill="#d0df97"/><path d="M546.12,49.61c-.64,2.06-1.31,4.11-1.94,6.18-1.25,4.07-2.7,8.07-3.72,12.21a31.1,31.1,0,0,0-.76,9.43,33.22,33.22,0,0,0,1.83,9.1,33.89,33.89,0,0,0,11.54,15.81c.35.28.75.51,1.12.77a2.89,2.89,0,0,0,1.26-1.16,9.65,9.65,0,0,0,1.77-2.89c0-.26-.25-.38-.43-.51A28.32,28.32,0,0,1,545.71,82.2a27.4,27.4,0,0,1-.24-12.64,25.44,25.44,0,0,1,.66-2.46q2.36-7.48,4.71-15a1.45,1.45,0,0,0,.15-1c-.16-.13-.31-.19-.45,0A31.55,31.55,0,0,1,549.42,55a.4.4,0,0,1-.57.3,13.37,13.37,0,0,0-3.54-.63c-.32,0-.41-.15-.32-.44.49-1.43.82-2.92,1.45-4.3C546.48,49.62,546.34,49.57,546.12,49.61Z" fill="#eb8d52"/><path d="M543,116.26c0,.26.22.27.39.32l6,1.87a8.45,8.45,0,0,1,1.09-3.2,5.5,5.5,0,0,1,2.15-2.45c.2-.11.21-.24,0-.37C549,112.62,545.63,113.58,543,116.26Z" fill="#e1733a"/><path d="M550.58,51.15c.11-.11.24-.06.36,0s.43-.06.42-.35c.23-.3.25-.64-.19-.57-1.08.17-1.72-.54-2.47-1A4.69,4.69,0,0,1,546.76,46c-.08-.38.12-.74,0-1.11l-.32-.9a4,4,0,0,0-1,2.19,11.11,11.11,0,0,0-.12,1.16c0,.58-.47,0-.71.12,1.16.26,1,1.46,1.55,2.15.12,0,.26.07.28.23a.24.24,0,0,0,0,.23,4.11,4.11,0,0,0,3.91,1.27A.5.5,0,0,0,550.58,51.15Z" fill="#eec14d"/><path d="M557.17,99.08c-.56.42-.6,1.14-1,1.66-.65.8-1.25,1.63-2,2.37a28.44,28.44,0,0,0,3.06,1.91c.55-.13.35-.69.59-1a.59.59,0,0,0,.25-.27,19.35,19.35,0,0,0,1-3.41A2.71,2.71,0,0,0,557.17,99.08Z" fill="#de7836"/><path d="M592.44,21c-1.27-.4-1.27-.4-1.67.89L582.4,48.41c-.07.25-.34.53,0,.78.9.05,1.22-.15,1.48-1q4.19-13.3,8.38-26.61C592.36,21.4,592.39,21.17,592.44,21Z" fill="#224751"/><path d="M599.27,71.16c.5-1.54,1-3.08,1.49-4.62l-1.35-.44L564.11,55c-2.27-.71-4.54-1.46-6.81-2.2a2.76,2.76,0,0,1-.39-.18h-.15a.11.11,0,0,0,0,.11,1.08,1.08,0,0,0,.71.46l2.31.73c.7.23.73.28.52,1-.3,1-.62,1.94-.91,2.91a1.24,1.24,0,0,0-.08.91A1.26,1.26,0,0,0,560,59l38.48,12.13a1.32,1.32,0,0,0,.55.11A.92.92,0,0,0,599.27,71.16Z" fill="#425e70"/><path d="M601.24,65.33l4.15,1.24c.12-.18,0-.26-.14-.35a5.76,5.76,0,0,1-1-1.48,6.75,6.75,0,0,1-.64-2.31.76.76,0,0,0-.34-.68c-.14,0-.28-.09-.41-.15-.4-.19-.57,0-.69.37-.27.93-.58,1.84-.87,2.77C601.24,64.93,601.12,65.12,601.24,65.33Z" fill="#db5c43"/><path d="M603.27,61.75a8.25,8.25,0,0,1,.37,1.79,5.75,5.75,0,0,0,1.75,3c.42.07.17-.24.17-.35A4,4,0,0,1,606.8,63c-.13-.27-.41-.26-.63-.33Z" fill="#e8725c"/><path d="M611.09,70.09a4.44,4.44,0,0,1-4.43-1.27c-.27,0-.3.17-.36.34-.36,1.15-.71,2.3-1.09,3.44-.16.47.13.57.45.6a13.3,13.3,0,0,1,2.63.72,5.71,5.71,0,0,1,.84.38c.4.19.63.12.76-.35C610.27,72.66,610.69,71.38,611.09,70.09Z" fill="#e2733a"/><path d="M553.88,50.45l3.22,1.08,1.26-4-.13,0a1,1,0,0,0-.4.68c-.25.77-.5,1.54-.73,2.32-.12.4-.34.53-.74.39-.56-.2-1.15-.33-1.75-.58a9.36,9.36,0,0,1,1.23-1,4.48,4.48,0,0,0,1.69-2l-3.66-1.15a4.33,4.33,0,0,1-1.15,3.75C553.09,50.23,553.56,50.17,553.88,50.45Z" fill="#e8725c"/><path d="M557.53,47.34a14.08,14.08,0,0,1-3.42,3.08c.93.29,1.78.57,2.64.83.34.11.37-.16.44-.37l1-3.32Z" fill="#dd5a44"/><path d="M571.63,104.17a1.73,1.73,0,0,0-1.3-2.37c-3-.93-5.93-1.87-8.9-2.79a1.66,1.66,0,0,0-2.41,1.18c-.4,1.27-.79,2.55-1.18,3.83l12.57,4C570.81,106.71,571.22,105.44,571.63,104.17Z" fill="#eed26a"/><path d="M566.43,112c.19-.61.37-1.23.58-1.84.1-.3,0-.45-.28-.55q-3.39-1.05-6.77-2.13c-.35-.12-.48,0-.58.33-.4,1.31-.82,2.61-1.23,3.92a5.52,5.52,0,0,1,3.49-1.52,8.9,8.9,0,0,1,3.13.62,4,4,0,0,1,1.25.9,1.05,1.05,0,0,0,.4.27Z" fill="#db5b3e"/><path d="M550.58,51.15a4.22,4.22,0,0,1-4.18-1.31c-.32,0-.31.22-.37.4-.44,1.38-.87,2.77-1.31,4.15-.11.34-.18.48.35.44a10,10,0,0,1,3.81.65c.4.13.56.1.68-.29.37-1.19.75-2.38,1.12-3.56C550.73,51.45,550.82,51.26,550.58,51.15Z" fill="#e2733a"/><path d="M587.64,93.16a22.06,22.06,0,0,0,6.36-7,32.24,32.24,0,0,0,3-7.75c-.21-.33-.74-.36-.79-.85a.47.47,0,0,0-.17-.14,6.93,6.93,0,0,0-1-.34L561.77,66.64a8.87,8.87,0,0,0-2-.48,2.84,2.84,0,0,1-1.56-.57,1.52,1.52,0,0,0-.75-.28c-.41,0-.48.34-.57.63a17.28,17.28,0,0,0-.66,4.29,23.19,23.19,0,0,0,.92,7.69,23.71,23.71,0,0,0,3.67,7.44A24.15,24.15,0,0,0,564.05,89a18.25,18.25,0,0,0,3.55,2.61A13.21,13.21,0,0,1,569.9,93c.15.12.36.08.5.21s-.35.33-.13.54.5-.07.76,0c0,.27-.59.39-.3.69s.67,0,.82-.19c.42-.6.89-.39,1.42-.24a22.34,22.34,0,0,0,7.32.81,15.24,15.24,0,0,0,2.53-.2A20.75,20.75,0,0,0,587.64,93.16Z" fill="#425e70"/><path d="M587.64,93.16c-.5-.14-.9.19-1.3.36-1,.41-2,.4-3,.74a6,6,0,0,1-1.94.28,32.4,32.4,0,0,1-4.72-.09,23.13,23.13,0,0,1-4.59-1c-.12,0-.33-.14-.35.08-.07.61-.58.59-1,.83,0-.4.42-.4.55-.61s.19-.24.11-.39-.25,0-.37,0-.41.29-.71.26c0-.34.38-.28.49-.51s-.12-.16-.19-.18a18.66,18.66,0,0,1-3.68-2,21.82,21.82,0,0,1-4.35-3.69,26.32,26.32,0,0,1-3.25-4.42,23,23,0,0,1-1.65-3.72,21.42,21.42,0,0,1-1.36-7.06,17.23,17.23,0,0,1,.86-6.71.41.41,0,0,0,.2-.28.33.33,0,0,0-.1-.32,30,30,0,0,0-3.69-1.21.65.65,0,0,0-.31,0c-1.29,3.8-2.63,7.59-2.36,11.69.62,9.36,5.14,16.14,13.64,20.08a22.39,22.39,0,0,0,15.9,1.28A21.16,21.16,0,0,0,587.64,93.16Z" fill="#284451"/><path d="M599.27,71.16l-.17,0a.48.48,0,0,1-.42,0,9.13,9.13,0,0,0-1.88-.66l-33.94-10.7a2.54,2.54,0,0,0-.72-.18,2.51,2.51,0,0,0-.58,1.15c-.38,1.16-.73,2.34-1.11,3.5a2,2,0,0,1-.56,1.09c-.19.14-.1.28.06.39a2.3,2.3,0,0,0,.63.25l35.81,11.28a1.17,1.17,0,0,0,.9.09C598,75.32,598.63,73.23,599.27,71.16Z" fill="#f2d166"/><path d="M597.29,77.36l-20.77-6.54-15.73-4.95-.95-.3c.22-.11.45,0,.53-.3.58-1.88,1.17-3.75,1.77-5.63-.13-.17-.33-.18-.5-.23-2.06-.63-4-1.48-6.12-2.07a.39.39,0,0,0-.24,0l-1.91,6.08c1.55.62,3.19,1,4.49,1.48-1.33-.39-2.9-1-4.52-1.39a.11.11,0,0,0-.05.1l4.06,1.32c.23.36.63.38,1,.49l37.33,11.75c.5.16.94.55,1.53.43C597.29,77.55,597.31,77.47,597.29,77.36Z" fill="#eec14c"/><path d="M555.28,57.33l.17.06a39.19,39.19,0,0,0,3.8,1.24s.07,0,.1-.07c.43-1.36.84-2.72,1.28-4.08.13-.38,0-.55-.34-.67-1.19-.36-2.36-.74-3.54-1.12C556.2,54.22,555.72,55.77,555.28,57.33Z" fill="#294351"/><path d="M597.18,77.59a3.71,3.71,0,0,0-1.31-.56L558.48,65.25c-.37-.12-.75-.22-1.13-.33l-.08.23a8.09,8.09,0,0,0,2.64,1,8.59,8.59,0,0,1,.84.21l34.59,10.9c.29.09.62.11.83.39h0a.75.75,0,0,0,1,.3C597.25,77.86,597.13,77.71,597.18,77.59Z" fill="#425e70"/><path d="M553.34,63.5l5.09,1.61,0-.1c-1.41-.45-2.82-.92-4.24-1.32-.29-.08-.49-.46-.85-.28A.09.09,0,0,0,553.34,63.5Z" fill="#f2d166"/><path d="M597.12,78l-1-.3c-.27.82.52.54.8.78Z" fill="#386461"/><path d="M559.35,58.56l-3.9-1.17c.15.31.48.27.74.36,2,.64,4,1.26,5.95,1.89q17,5.34,33.9,10.69a6.36,6.36,0,0,1,2.63,1c.19.16.33,0,.43-.22l-.94-.32L560,58.8C559.77,58.73,559.56,58.64,559.35,58.56Z" fill="#e4d394"/><path d="M596.17,77.67a.27.27,0,0,0-.21-.33l-.53-.17-38.16-12-.08.24c.8.16,1.37.78,2.18,1,6.28,1.36,12.27,3.69,18.4,5.54S590,75.74,596.17,77.67Z" fill="#386461"/></g></svg>