<svg xmlns="http://www.w3.org/2000/svg" xmlns:xlink="http://www.w3.org/1999/xlink" viewBox="0 0 752.67 140.37"><defs><clipPath id="clip-path"><rect x="0.92" y="0.37" width="750" height="1877" fill="none"/></clipPath><linearGradient id="未命名的渐变_43" x1="375.92" y1="-105.44" x2="375.92" y2="395.05" gradientUnits="userSpaceOnUse"><stop offset="0.02" stop-color="#fa5"/><stop offset="0.99" stop-color="#ffc992"/></linearGradient><linearGradient id="未命名的渐变_87" x1="228.52" y1="68.29" x2="193.22" y2="102.69" gradientUnits="userSpaceOnUse"><stop offset="0" stop-color="#b51b2b"/><stop offset="0.39" stop-color="#ba1c2c"/><stop offset="0.84" stop-color="#c71f2f"/><stop offset="1" stop-color="#ce2031"/></linearGradient><clipPath id="clip-path-2"><path d="M175.23,85.37l26.54-35.28a4.6,4.6,0,0,1,6.45-.92l48.28,36.2Z" fill="none"/></clipPath><linearGradient id="未命名的渐变_123" x1="197.87" y1="107.57" x2="236.38" y2="70.76" gradientUnits="userSpaceOnUse"><stop offset="0" stop-color="#92561f"/><stop offset="0.32" stop-color="#bc7e2f"/><stop offset="1" stop-color="#f1d1ac"/></linearGradient><linearGradient id="未命名的渐变_111" x1="254.42" y1="90.16" x2="233.56" y2="113.89" gradientUnits="userSpaceOnUse"><stop offset="0" stop-color="#debf93"/><stop offset="0.12" stop-color="#debe92" stop-opacity="0.98"/><stop offset="0.25" stop-color="#dcbb8d" stop-opacity="0.92"/><stop offset="0.39" stop-color="#dab786" stop-opacity="0.81"/><stop offset="0.54" stop-color="#d6b07c" stop-opacity="0.67"/><stop offset="0.69" stop-color="#d2a870" stop-opacity="0.49"/><stop offset="0.85" stop-color="#cd9e60" stop-opacity="0.26"/><stop offset="1" stop-color="#c7924e" stop-opacity="0"/></linearGradient><clipPath id="clip-path-3"><path d="M256.5,85.37,230,120.66a4.61,4.61,0,0,1-6.46.92L175.23,85.37Z" fill="none"/></clipPath><linearGradient id="未命名的渐变_71" x1="250.82" y1="66.81" x2="177.4" y2="66.81" gradientUnits="userSpaceOnUse"><stop offset="0" stop-color="#c31e2f"/><stop offset="0.35" stop-color="#c81f30"/><stop offset="0.75" stop-color="#d52234"/><stop offset="1" stop-color="#e22438"/></linearGradient><linearGradient id="未命名的渐变_76" x1="175.23" y1="67.51" x2="223.52" y2="67.51" gradientUnits="userSpaceOnUse"><stop offset="0" stop-color="#f2b1b1"/><stop offset="0.11" stop-color="#f2afaf" stop-opacity="0.98"/><stop offset="0.24" stop-color="#f1abab" stop-opacity="0.92"/><stop offset="0.37" stop-color="#f0a3a4" stop-opacity="0.83"/><stop offset="0.51" stop-color="#ef9899" stop-opacity="0.7"/><stop offset="0.66" stop-color="#ed8a8c" stop-opacity="0.53"/><stop offset="0.81" stop-color="#eb797c" stop-opacity="0.32"/><stop offset="0.95" stop-color="#e86669" stop-opacity="0.08"/><stop offset="1" stop-color="#e75f63" stop-opacity="0"/></linearGradient><linearGradient id="未命名的渐变_100" x1="8411.07" y1="4278.48" x2="8358.07" y2="4187.96" gradientTransform="matrix(-0.6, -0.8, -0.8, 0.6, 8647.21, 4256.42)" gradientUnits="userSpaceOnUse"><stop offset="0" stop-color="#a26d30"/><stop offset="0.38" stop-color="#bd873a"/><stop offset="0.81" stop-color="#f1d1ac"/></linearGradient><linearGradient id="未命名的渐变_105" x1="251.53" y1="89.09" x2="211.16" y2="117.95" gradientUnits="userSpaceOnUse"><stop offset="0" stop-color="#e0c88d"/><stop offset="0.12" stop-color="#e0c78c" stop-opacity="0.98"/><stop offset="0.25" stop-color="#dfc58b" stop-opacity="0.92"/><stop offset="0.39" stop-color="#ddc288" stop-opacity="0.82"/><stop offset="0.54" stop-color="#dbbe84" stop-opacity="0.67"/><stop offset="0.69" stop-color="#d9b87f" stop-opacity="0.49"/><stop offset="0.84" stop-color="#d6b178" stop-opacity="0.27"/><stop offset="1" stop-color="#d2a971" stop-opacity="0.01"/><stop offset="1" stop-color="#d2a971" stop-opacity="0"/></linearGradient><linearGradient id="未命名的渐变_81" x1="175.97" y1="81.74" x2="202.62" y2="51.66" gradientUnits="userSpaceOnUse"><stop offset="0" stop-color="#f3af9a"/><stop offset="0.11" stop-color="#f3ac98" stop-opacity="0.98"/><stop offset="0.24" stop-color="#f2a492" stop-opacity="0.92"/><stop offset="0.37" stop-color="#f09787" stop-opacity="0.83"/><stop offset="0.51" stop-color="#ed8579" stop-opacity="0.7"/><stop offset="0.66" stop-color="#ea6e66" stop-opacity="0.53"/><stop offset="0.8" stop-color="#e6514f" stop-opacity="0.32"/><stop offset="0.95" stop-color="#e23034" stop-opacity="0.08"/><stop offset="1" stop-color="#e0242b" stop-opacity="0"/></linearGradient><linearGradient id="未命名的渐变_105-2" x1="177" y1="85.49" x2="195.22" y2="110.23" xlink:href="#未命名的渐变_105"/><linearGradient id="未命名的渐变_76-2" x1="254.65" y1="84.89" x2="234.16" y2="56.52" xlink:href="#未命名的渐变_76"/><linearGradient id="未命名的渐变_5" x1="554.19" y1="93.41" x2="486.89" y2="26.11" gradientUnits="userSpaceOnUse"><stop offset="0" stop-color="#8f5921"/><stop offset="0.38" stop-color="#ad7428"/><stop offset="0.81" stop-color="#edc89b"/></linearGradient><linearGradient id="未命名的渐变_6" x1="491.8" y1="64.07" x2="547.48" y2="57.92" gradientUnits="userSpaceOnUse"><stop offset="0" stop-color="#b10023"/><stop offset="0.33" stop-color="#b60024"/><stop offset="0.7" stop-color="#c30027"/><stop offset="1" stop-color="#d4002a"/></linearGradient></defs><g style="isolation:isolate"><g id="图层_1" data-name="图层 1"><g clip-path="url(#clip-path)"><rect x="0.92" y="0.37" width="750" height="1877" fill="url(#未命名的渐变_43)"/><path d="M208.56.37S293.49,71.09,335.24,107,474,157.79,572.72,150.32s108.92-23.14,211.82-21.61c99.37,1.47,135.38,23.48,135.38,23.48V.37Z" fill="#ffa759"/><g opacity="0.16"><rect x="24.42" y="80.87" width="28" height="124" fill="none" stroke="#fff" stroke-miterlimit="10" stroke-width="1.49"/><polygon points="136.25 77.97 68.37 204.88 101.41 204.88 136.17 135.07 172.03 204.88 206.48 204.88 136.25 77.97" fill="none" stroke="#fff" stroke-miterlimit="10" stroke-width="1.49"/></g><path d="M377.56,89.5a65,65,0,0,0,5.85,13.87h5c-2.53-4.52-5.55-10.67-6.34-13.78l-.05-.22h5.86v-4h-11v-4h5.39A3.48,3.48,0,0,0,385.92,78V71.71a3.49,3.49,0,0,0-3.61-3.34H362.92v13h9v4h-11v4h5.74l-.08.23a138,138,0,0,1-6.34,13.77h5.05a75.74,75.74,0,0,0,5.85-13.87l0-.13h.74v14h5v-14h.6Zm-9.64-12.13v-6h11.64a1.33,1.33,0,0,1,1.36,1.28V76.1a1.32,1.32,0,0,1-1.36,1.27Z" fill="#fff"/><polygon points="405.92 99.38 405.92 103.38 430.92 103.38 430.92 99.38 425.34 99.38 429.25 87.47 424.96 86.03 421.02 99.38 405.92 99.38" fill="#fff"/><polygon points="414.67 97.04 413.17 87.88 409.19 88.43 410.69 97.61 414.67 97.04" fill="#fff"/><polygon points="421.15 96.08 419.97 87.1 415.94 87.62 417.32 96.53 421.15 96.08" fill="#fff"/><path d="M407.39,90.79a19.92,19.92,0,0,0-2.6-9.38l-.11-.19.06-.09c1.79-3.08,3.34-7.61,3.45-10.11a2.49,2.49,0,0,0-.66-1.87,2.73,2.73,0,0,0-2-.78H393.92v35h5v-31h4.37l0,.2a21.34,21.34,0,0,1-1,4.26c-.57,1.7-1.46,4-1.61,4.45,1.74,4.24,2.48,7.08,2.39,9.2,0,1.36-.45,1.89-1.61,1.89h-1.19l.7,4h2.73a3.36,3.36,0,0,0,2.54-1C407.32,94.24,407.46,92.25,407.39,90.79Z" fill="#fff"/><path d="M430.1,82.74,432,78.49a29.43,29.43,0,0,1-11.07-9.16l-.07-.08.08-.16c.39-.81.68-1.38.86-1.72h-5.28c-2.5,4.48-4.89,7.28-9.75,11.42.3.6,1.53,3.11,1.88,3.91a9.16,9.16,0,0,0,1.66-1.3l.6-.54v3.51h16V80.78l.29.18C428.09,81.56,429.07,82.16,430.1,82.74Zm-18.43-1.37.42-.33A31.22,31.22,0,0,0,419,73.52l.15-.22.15.22A28,28,0,0,0,427,81l.5.33Z" fill="#fff"/><path d="M285.11,85l.17-.28.15.29c2.92,5.58,8.69,11.36,16.27,15.64l2.55-4.31c-7.47-3.69-14.2-10.89-15.7-16.8l-.05-.21h15.42v-4H287.84v-.19c.09-1.75.07-6.78.07-7.81H282c0,1.11-.07,6.89-.08,7.82v.18h-15v4h14.79l-.06.21c-1.75,6.28-6.84,11.77-15.55,16.79l2.53,4.32A43,43,0,0,0,285.11,85Z" fill="#fff"/><path d="M339.92,74.69v4.68h5v-5s-1.5-4.27-4-4H329.43l-.81-3H323l.79,3H308.92v9h5v-6h24.37C339.39,73.37,339.92,73.81,339.92,74.69Z" fill="#fff"/><path d="M333,90.64a37.85,37.85,0,0,0,9.63,10.48l2.87-3.3a37.66,37.66,0,0,1-9-8.91l-.1-.15.16-.1a69.4,69.4,0,0,1,6.76-2.87l-1.53-3.47-10.71,4.49-.07-.18a17.32,17.32,0,0,0-3.48-6l-.25-.3h10.58v-3h-22v3h6.17l-.56.35c-3.49,2.14-8.84,3.85-12.61,5v4.07A61,61,0,0,0,324,83.12l.13-.08.11.1a9,9,0,0,1,1.14,1.65l.08.14-.14.1c-5.21,3.49-9.45,5.31-16.41,7.82v3.89c7.74-2.65,13.7-5.6,17.73-8.79l.21-.17L327,88a7.76,7.76,0,0,1,.43,2.28v.1l-.08.06c-4.15,3.14-10.33,6.08-18.39,8.75v3.69c4.34-1.21,12.3-3.86,18.54-8.3l.32-.23-.12,3.48a2.25,2.25,0,0,1-2.41,2.5h-3.33v3h4.64c3.44-.1,5.25-1.81,5.36-5.08V94l-.13-2.75,1.13-.8Z" fill="#fff"/><path d="M356.55,67.37a57.59,57.59,0,0,1-8.19,15.75l3.2,3.32c.24-.31.55-.75.92-1.28s.93-1.32,1.52-2.12l.92-.45v20.78h4V74.88c1-2.19,2-5,2.92-7.51Z" fill="#fff"/><path d="M175.23,85.37l26.54-35.28a4.6,4.6,0,0,1,6.45-.92l48.28,36.2Z" fill="url(#未命名的渐变_87)"/><g clip-path="url(#clip-path-2)"><g opacity="0.79" style="mix-blend-mode:multiply"><image width="803" height="508" transform="translate(150.92 27.37) scale(0.16)" xlink:href="top_text1.png"/></g></g><path d="M256.5,85.37,230,120.66a4.61,4.61,0,0,1-6.46.92L175.23,85.37Z" fill="url(#未命名的渐变_123)"/><polygon points="256.5 85.25 229.96 120.53 228.56 119.15 256.5 85.25" fill="url(#未命名的渐变_111)" style="mix-blend-mode:overlay"/><g clip-path="url(#clip-path-3)"><g opacity="0.75" style="mix-blend-mode:multiply"><image width="803" height="509" transform="translate(150.92 61.37) scale(0.16)" xlink:href="top_text2.png"/></g></g><path d="M256.5,85.37,230,50.09a4.61,4.61,0,0,0-6.46-.92l-48.27,36.2Z" fill="url(#未命名的渐变_71)"/><polygon points="222.53 49.77 175.23 85.25 223.52 51.01 222.53 49.77" opacity="0.5" fill="url(#未命名的渐变_76)"/><path d="M175.23,85.37l26.54,35.29a4.6,4.6,0,0,0,6.45.92L256.5,85.37Z" fill="url(#未命名的渐变_100)"/><polygon points="208.34 121.36 256.5 85.25 207.18 119.39 208.34 121.36" opacity="0.5" fill="url(#未命名的渐变_105)" style="mix-blend-mode:overlay"/><path d="M194.81,75.37h-4.89v14h4.88c2.49,0,8.55-.32,8.55-7.36S196,75.37,194.81,75.37Zm-.36,12h-1.53v-10h1.63c1.13,0,5.4,0,5.36,4.75C199.87,86.41,196.43,87.37,194.45,87.37Z" fill="#fff"/><rect x="227.92" y="75.37" width="3" height="14" fill="#fff"/><path d="M224.92,75.37h-3V85c0,3.36-1.68,4-1.68,4l.86,1.61a5,5,0,0,0,3.82-5Z" fill="#fff"/><polygon points="240.91 75.68 233.04 90.38 236.87 90.38 240.9 82.29 245.05 90.38 249.04 90.38 240.91 75.68" fill="#fff"/><polygon points="210.37 75.68 202.51 90.38 206.34 90.38 210.37 82.29 214.52 90.38 218.51 90.38 210.37 75.68" fill="#fff"/><polygon points="175.23 85.25 201.77 49.96 203.09 51.35 175.23 85.25" fill="url(#未命名的渐变_81)"/><polygon points="175.23 85.25 198.47 116.15 200.65 115.44 175.23 85.25" opacity="0.5" fill="url(#未命名的渐变_105-2)" style="mix-blend-mode:overlay"/><polygon points="256.5 85.25 233.69 54.93 232.24 56.05 256.5 85.25" opacity="0.5" fill="url(#未命名的渐变_76-2)"/><path d="M189.92,92.37h2a5.56,5.56,0,0,1,1,.09,2.51,2.51,0,0,1,.8.26,1.39,1.39,0,0,1,.52.47,1.28,1.28,0,0,1,.18.7,1.16,1.16,0,0,1-.4,1,2.44,2.44,0,0,1-1.09.47v0a2.34,2.34,0,0,1,.68.14,1.62,1.62,0,0,1,.53.3,1.27,1.27,0,0,1,.34.43,1.21,1.21,0,0,1,.13.58,1.39,1.39,0,0,1-.22.79,1.62,1.62,0,0,1-.6.49,3.24,3.24,0,0,1-.88.25,9,9,0,0,1-1.05.06h-1.93Zm1,3h.29a.87.87,0,0,1,.65-.24,1.78,1.78,0,0,0,.55-.13.85.85,0,0,0,.37-.27.84.84,0,0,0,.14-.51.7.7,0,0,0-.12-.42.84.84,0,0,0-.29-.27,1.72,1.72,0,0,0-.4-.14,2,2,0,0,0-.43,0h-.76Zm0,2h.73a6.4,6.4,0,0,0,.64,0,2,2,0,0,0,.53-.15.91.91,0,0,0,.37-.29.8.8,0,0,0,.14-.48.92.92,0,0,0-.16-.55,1,1,0,0,0-.41-.32,2,2,0,0,0-.57-.14c-.21,0-.42,0-.63,0h-.64Z" fill="#fff"/><path d="M197.73,92.37h1l2.92,6h-1.16l-.68-1h-3.27l-.68,1h-1.13Zm.48,1.13-1.33,2.87h2.66Z" fill="#fff"/><path d="M202.41,94.38a2.55,2.55,0,0,1,.63-.95,3,3,0,0,1,1-.62,4.11,4.11,0,0,1,2.71,0,3.06,3.06,0,0,1,1,.62,2.55,2.55,0,0,1,.63.95,3.27,3.27,0,0,1,.21,1.19,3.4,3.4,0,0,1-.21,1.22,2.51,2.51,0,0,1-.63.94,2.78,2.78,0,0,1-1,.62,3.84,3.84,0,0,1-1.36.22,3.9,3.9,0,0,1-1.37-.22,2.82,2.82,0,0,1-1-.62,2.51,2.51,0,0,1-.63-.94,3.19,3.19,0,0,1-.22-1.22A3.07,3.07,0,0,1,202.41,94.38Zm.93,2a2.14,2.14,0,0,0,.39.73,2,2,0,0,0,.69.51,2.67,2.67,0,0,0,2,0,2,2,0,0,0,.68-.51,2.16,2.16,0,0,0,.4-.73,2.63,2.63,0,0,0,.13-.84,2.75,2.75,0,0,0-.14-.85,2.14,2.14,0,0,0-.41-.72,2.06,2.06,0,0,0-.68-.51,2.7,2.7,0,0,0-1.94,0,2.06,2.06,0,0,0-.68.51,2.14,2.14,0,0,0-.41.72,2.49,2.49,0,0,0-.14.85A2.63,2.63,0,0,0,203.34,96.41Z" fill="#fff"/><path d="M211.64,95.25l-2.32-2.88h1.19l1.85,2.31,1.83-2.31h1.13L213,95.24l2.56,3.13H214.3l-2-2.54-2,2.54H209.1Z" fill="#fff"/><path d="M215.92,92.37h1v6h-1Z" fill="#fff"/><path d="M221.12,92.37h1l2.92,6h-1.16l-.68-1H220l-.67,1h-1.13Zm.49,1.13-1.33,2.87h2.66Z" fill="#fff"/><path d="M225.92,92.37h.9l3.08,5h0v-5h1v6h-1.15l-2.83-5h0v5h-1Z" fill="#fff"/><line x1="459.42" y1="67.37" x2="459.42" y2="106.37" fill="none" stroke="#fff" stroke-miterlimit="10"/><text transform="translate(498.74 113.93)" font-size="15.13" fill="#a30823" font-family="FZFYSJW--GB1-0, FZFengYaSongS-GB" letter-spacing="0.08em">大家文化</text><path d="M561.45,69.24a14.16,14.16,0,0,1-2.33,2.8l-19.68,18a12.42,12.42,0,0,1-16.75,0L503,72a13.67,13.67,0,0,1-4.39-9.14,17.41,17.41,0,0,0,3.76,5.37l21.9,20a10.07,10.07,0,0,0,13.57,0l19.67-18a11.16,11.16,0,0,0,2.68-3.72,13.24,13.24,0,0,0-1.67-2l-.08-.08a8.88,8.88,0,0,1-2.52,4l-19.68,18a7.71,7.71,0,0,1-10.38,0l-21.9-20a13.82,13.82,0,0,1-3.83-7.49,5.44,5.44,0,0,0,1.23,1.87l26.09,23.91a5.33,5.33,0,0,0,7.2,0l19.68-18a6.48,6.48,0,0,0,2.09-4.25l-3.14-3A4.08,4.08,0,0,1,554.1,62a4.13,4.13,0,0,1-1.35,3.07l-19.68,18a3,3,0,0,1-4,0L503,59.18a7.68,7.68,0,0,1-1.54-8.93,15.93,15.93,0,0,0,0,23.53l19.67,18a14.78,14.78,0,0,0,19.94,0l19.68-18A5.6,5.6,0,0,0,561.45,69.24Z" fill="url(#未命名的渐变_5)"/><path d="M560.71,73.78a16,16,0,0,0,0-23.53L559,48.66a16.31,16.31,0,0,0-22.05,0l-5.33,4.87a.77.77,0,0,1-1.06,0l-5.33-4.87a16.31,16.31,0,0,0-22.05,0l-1.73,1.59a7.57,7.57,0,0,0-.73,4.52A13.39,13.39,0,0,1,503,52l1.74-1.59a14,14,0,0,1,18.86,0l6.75,6.28a1,1,0,0,0,1.4,0l6.75-6.28a14,14,0,0,1,18.87,0L559.12,52a13.61,13.61,0,0,1,4.38,9.1,11.53,11.53,0,0,0-2.87-4.3l-4.84-4.65a11.61,11.61,0,0,0-15.69,0l-8.18,7.68a1.27,1.27,0,0,1-1.74,0L522,52.14a11.6,11.6,0,0,0-15.68,0l-1.74,1.59a11.12,11.12,0,0,0-2.8,4A7.57,7.57,0,0,0,503,59.18l.64.58a8.88,8.88,0,0,1,2.59-4.29l1.74-1.59a9.25,9.25,0,0,1,12.5,0L530,63a1.52,1.52,0,0,0,2.08,0l9.61-9.08a9.24,9.24,0,0,1,12.49,0L559,58.53a9.88,9.88,0,0,1,3,7,1.62,1.62,0,0,1,0,.22,8.8,8.8,0,0,0-1.86-2.85l-7.53-7.24a6.89,6.89,0,0,0-9.31,0l-11,10.48a1.75,1.75,0,0,1-2.42,0l-11-10.48a6.9,6.9,0,0,0-9.32,0l-1.73,1.58a6.52,6.52,0,0,0-2.11,4.46l3.45,3.17a4.17,4.17,0,0,1,.25-5.89l1.73-1.58a4.54,4.54,0,0,1,6.13,0l12.41,11.88a2,2,0,0,0,2.77,0l12.46-11.89a4.54,4.54,0,0,1,6.13,0l7.52,7.24C560.39,66.45,563.08,70,560.71,73.78Z" fill="url(#未命名的渐变_6)"/></g></g></g></svg>